<?xml version="1.0" encoding="UTF-8"?>
<svg id="Layer_2" data-name="Layer 2" xmlns="http://www.w3.org/2000/svg" viewBox="0 0 84.22 58.06">
  <defs>
    <style>
      .cls-1 {
        fill: #5b6fb4;
      }
    </style>
  </defs>
  <g id="Layer_1-2" data-name="Layer 1">
    <g>
      <path class="cls-1" d="M46,39.61l-3.66,1.52,.06,.14,3.66-1.52-.06-.14Zm-28.74,16.91l-3.65,1.52v.02s3.66-1.52,3.66-1.52l2.86-1.19v-.02s-2.87,1.19-2.87,1.19Z"/>
      <path class="cls-1" d="M82.53,52.12l-.09-.21L64.65,9.13,60.85,0,0,25.31l11.85,28.5,1.76,4.23,3.65-1.52,2.86-1.19v.02s50.69-21.08,50.69-21.08l.23,.55,7.74,18.6,.09,.22,1.69,4.09,3.66-1.51-1.69-4.1Zm-36.47-12.37l-3.66,1.52-.06-.14-26.83,11.16L5.42,28.03l26.83-11.16,10.09,24.26,3.66-1.52-10.09-24.26L58.96,5.76l2.03,4.89,8.06,19.37-23.05,9.59,.06,.14Z"/>
    </g>
  </g>
</svg>